<svg display="none" version="1.1" xmlns="http://www.w3.org/2000/svg" xmlns:xlink="http://www.w3.org/1999/xlink">
<defs>
<symbol id="icon-home" viewBox="0 0 1024 1024">
	<title>home</title>
	<path class="path1" d="M1024 590.444l-512-397.426-512 397.428v-162.038l512-397.426 512 397.428zM896 576v384h-256v-256h-256v256h-256v-384l384-288z"></path>
</symbol>
<symbol id="icon-notebook" viewBox="0 0 1024 1024">
	<title>notebook</title>
	<path class="path1" d="M898.36 64h-770.36v128h-93.64c-17.6 0-34.36 12.528-34.36 30.128v64c0 17.6 16.76 33.872 34.36 33.872h93.64v64h-93.64c-17.6 0-34.36 12.528-34.36 30.128v64c0 17.6 16.76 33.872 34.36 33.872h93.64v64h-93.64c-17.6 0-34.36 12.528-34.36 30.128v64c0 17.598 16.76 33.872 34.36 33.872h93.64v64h-93.64c-17.6 0-34.36 12.528-34.36 30.128v64c0 17.6 16.76 33.872 34.36 33.872h93.64v128h770.36c35.348 0 61.64-30.526 61.64-65.872v-832c0-35.346-26.292-62.128-61.64-62.128zM320 960h-128v-64h34.36c17.6 0 29.64-16.272 29.64-33.872v-64c0-17.602-12.042-30.128-29.64-30.128h-34.36v-64h34.36c17.6 0 29.64-16.272 29.64-33.872v-64c0-17.602-12.042-30.128-29.64-30.128h-34.36v-64h34.36c17.6 0 29.64-16.272 29.64-33.872v-64c0-17.602-12.042-30.128-29.64-30.128h-34.36v-64h34.36c17.6 0 29.64-16.272 29.64-33.872v-64c0-17.602-12.040-30.128-29.64-30.128h-34.36v-64h128v832z"></path>
</symbol>
<symbol id="icon-location" viewBox="0 0 1024 1024">
	<title>location</title>
	<path class="path1" d="M512 0c-176.732 0-320 143.268-320 320 0 320 320 704 320 704s320-384 320-704c0-176.732-143.27-320-320-320zM512 512c-106.040 0-192-85.96-192-192s85.96-192 192-192 192 85.96 192 192-85.96 192-192 192z"></path>
</symbol>
<symbol id="icon-map" viewBox="0 0 1024 1024">
	<title>map</title>
	<path class="path1" d="M0 192l320-128v768l-320 128zM704 192v768l-320-106.666v-768zM1024 64v768l-256 102.4v-768z"></path>
</symbol>
<symbol id="icon-history" viewBox="0 0 1024 1024">
	<title>history</title>
	<path class="path1" d="M576 64c247.424 0 448 200.576 448 448s-200.576 448-448 448v-96c94.024 0 182.418-36.614 248.902-103.098s103.098-154.878 103.098-248.902c0-94.022-36.614-182.418-103.098-248.902s-154.878-103.098-248.902-103.098c-94.022 0-182.418 36.614-248.902 103.098-51.14 51.138-84.582 115.246-97.306 184.902h186.208l-224 256-224-256h164.57c31.060-217.102 217.738-384 443.43-384zM768 448v128h-256v-320h128v192z"></path>
</symbol>
<symbol id="icon-calendar" viewBox="0 0 1024 1024">
	<title>calendar</title>
	<path class="path1" d="M320 384h128v128h-128zM512 384h128v128h-128zM704 384h128v128h-128zM128 768h128v128h-128zM320 768h128v128h-128zM512 768h128v128h-128zM320 576h128v128h-128zM512 576h128v128h-128zM704 576h128v128h-128zM128 576h128v128h-128zM832 0v64h-128v-64h-448v64h-128v-64h-128v1024h960v-1024h-128zM896 960h-832v-704h832v704z"></path>
</symbol>
<symbol id="icon-spinner" viewBox="0 0 1024 1024">
	<title>spinner</title>
	<path class="path1" d="M1024 384h-384l143.53-143.53c-72.53-72.526-168.96-112.47-271.53-112.47s-199 39.944-271.53 112.47c-72.526 72.53-112.47 168.96-112.47 271.53s39.944 199 112.47 271.53c72.53 72.526 168.96 112.47 271.53 112.47s199-39.944 271.528-112.472c6.056-6.054 11.86-12.292 17.456-18.668l96.32 84.282c-93.846 107.166-231.664 174.858-385.304 174.858-282.77 0-512-229.23-512-512s229.23-512 512-512c141.386 0 269.368 57.326 362.016 149.984l149.984-149.984v384z"></path>
</symbol>
<symbol id="icon-search" viewBox="0 0 1024 1024">
	<title>search</title>
	<path class="path1" d="M992.262 871.396l-242.552-206.294c-25.074-22.566-51.89-32.926-73.552-31.926 57.256-67.068 91.842-154.078 91.842-249.176 0-212.078-171.922-384-384-384-212.076 0-384 171.922-384 384s171.922 384 384 384c95.098 0 182.108-34.586 249.176-91.844-1 21.662 9.36 48.478 31.926 73.552l206.294 242.552c35.322 39.246 93.022 42.554 128.22 7.356s31.892-92.898-7.354-128.22zM384 640c-141.384 0-256-114.616-256-256s114.616-256 256-256 256 114.616 256 256-114.614 256-256 256z"></path>
</symbol>
<symbol id="icon-fire" viewBox="0 0 1024 1024">
	<title>fire</title>
	<path class="path1" d="M321.008 1024c-68.246-142.008-31.902-223.378 20.55-300.044 57.44-83.956 72.244-167.066 72.244-167.066s45.154 58.7 27.092 150.508c79.772-88.8 94.824-230.28 82.782-284.464 180.314 126.012 257.376 398.856 153.522 601.066 552.372-312.532 137.398-780.172 65.154-832.85 24.082 52.676 28.648 141.85-20 185.126-82.352-312.276-285.972-376.276-285.972-376.276 24.082 161.044-87.296 337.144-194.696 468.73-3.774-64.216-7.782-108.528-41.55-169.98-7.58 116.656-96.732 211.748-120.874 328.628-32.702 158.286 24.496 274.18 241.748 396.622z"></path>
</symbol>
<symbol id="icon-download" viewBox="0 0 1024 1024">
	<title>download</title>
	<path class="path1" d="M896 512h-160l-224 224-224-224h-160l-128 256v64h1024v-64l-128-256zM0 896h1024v64h-1024v-64zM576 320v-256h-128v256h-224l288 288 288-288h-224z"></path>
</symbol>
<symbol id="icon-globe" viewBox="0 0 1024 1024">
	<title>globe</title>
	<path class="path1" d="M480 64c-265.096 0-480 214.904-480 480 0 265.098 214.904 480 480 480 265.098 0 480-214.902 480-480 0-265.096-214.902-480-480-480zM751.59 704c8.58-40.454 13.996-83.392 15.758-128h127.446c-3.336 44.196-13.624 87.114-30.68 128h-112.524zM208.41 384c-8.58 40.454-13.996 83.392-15.758 128h-127.444c3.336-44.194 13.622-87.114 30.678-128h112.524zM686.036 384c9.614 40.962 15.398 83.854 17.28 128h-191.316v-128h174.036zM512 320v-187.338c14.59 4.246 29.044 11.37 43.228 21.37 26.582 18.74 52.012 47.608 73.54 83.486 14.882 24.802 27.752 52.416 38.496 82.484h-155.264zM331.232 237.516c21.528-35.878 46.956-64.748 73.54-83.486 14.182-10 28.638-17.124 43.228-21.37v187.34h-155.264c10.746-30.066 23.616-57.68 38.496-82.484zM448 384v128h-191.314c1.88-44.146 7.666-87.038 17.278-128h174.036zM95.888 704c-17.056-40.886-27.342-83.804-30.678-128h127.444c1.762 44.608 7.178 87.546 15.758 128h-112.524zM256.686 576h191.314v128h-174.036c-9.612-40.96-15.398-83.854-17.278-128zM448 768v187.34c-14.588-4.246-29.044-11.372-43.228-21.37-26.584-18.74-52.014-47.61-73.54-83.486-14.882-24.804-27.75-52.418-38.498-82.484h155.266zM628.768 850.484c-21.528 35.876-46.958 64.746-73.54 83.486-14.184 9.998-28.638 17.124-43.228 21.37v-187.34h155.266c-10.746 30.066-23.616 57.68-38.498 82.484zM512 704v-128h191.314c-1.88 44.146-7.666 87.040-17.28 128h-174.034zM767.348 512c-1.762-44.608-7.178-87.546-15.758-128h112.524c17.056 40.886 27.344 83.806 30.68 128h-127.446zM830.658 320h-95.9c-18.638-58.762-44.376-110.294-75.316-151.428 42.536 20.34 81.058 47.616 114.714 81.272 21.48 21.478 40.362 44.938 56.502 70.156zM185.844 249.844c33.658-33.658 72.18-60.932 114.714-81.272-30.942 41.134-56.676 92.666-75.316 151.428h-95.898c16.138-25.218 35.022-48.678 56.5-70.156zM129.344 768h95.898c18.64 58.762 44.376 110.294 75.318 151.43-42.536-20.34-81.058-47.616-114.714-81.274-21.48-21.478-40.364-44.938-56.502-70.156zM774.156 838.156c-33.656 33.658-72.18 60.934-114.714 81.274 30.942-41.134 56.678-92.668 75.316-151.43h95.9c-16.14 25.218-35.022 48.678-56.502 70.156z"></path>
</symbol>
<symbol id="icon-info" viewBox="0 0 1024 1024">
	<title>info</title>
	<path class="path1" d="M512 0c-282.77 0-512 229.23-512 512s229.23 512 512 512 512-229.23 512-512-229.23-512-512-512zM448 192h128v128h-128v-128zM640 832h-256v-64h64v-256h-64v-64h192v320h64v64z"></path>
</symbol>
<symbol id="icon-mail" viewBox="0 0 1024 1024">
	<title>mail</title>
	<path class="path1" d="M853.31 0h-682.62c-93.88 0-170.69 76.784-170.69 170.658v682.656c0 93.876 76.81 170.686 170.69 170.686h682.622c93.938 0 170.688-76.81 170.688-170.686v-682.656c0-93.874-76.75-170.658-170.69-170.658zM256 256h512c9.138 0 18.004 1.962 26.144 5.662l-282.144 329.168-282.144-329.17c8.14-3.696 17.006-5.66 26.144-5.66zM192 704v-384c0-1.34 0.056-2.672 0.14-4l187.664 218.94-185.598 185.6c-1.444-5.338-2.206-10.886-2.206-16.54zM768 768h-512c-5.654 0-11.202-0.762-16.54-2.206l182.118-182.118 90.422 105.496 90.424-105.494 182.116 182.118c-5.34 1.442-10.886 2.204-16.54 2.204zM832 704c0 5.654-0.762 11.2-2.206 16.54l-185.598-185.598 187.664-218.942c0.084 1.328 0.14 2.66 0.14 4v384z"></path>
</symbol>
<symbol id="icon-instagram" viewBox="0 0 1024 1024">
	<title>instagram</title>
	<path class="path1" d="M854 0h-684c-93.5 0-170 76.5-170 170v684c0 93.5 76.5 170 170 170h684c93.5 0 170-76.5 170-170v-684c0-93.5-76.5-170-170-170zM327.8 448h368.4c6.988 20.058 10.8 41.59 10.8 64 0 107.524-87.476 195-195 195s-195-87.476-195-195c0-22.41 3.812-43.942 10.8-64zM896 448.050v383.95c0 35.2-28.8 64-64 64h-640c-35.2 0-64-28.8-64-64v-384h100.108c-4.642 20.602-7.108 42.016-7.108 64 0 160.458 130.542 291 291 291s291-130.542 291-291c0-21.984-2.464-43.398-7.108-64l100.108 0.050zM896 224c0 17.6-14.4 32-32 32h-64c-17.6 0-32-14.4-32-32v-64c0-17.6 14.4-32 32-32h64c17.6 0 32 14.4 32 32v64z"></path>
</symbol>
<symbol id="icon-feed" viewBox="0 0 1024 1024">
	<title>feed</title>
	<path class="path1" d="M853.34 0h-682.654c-93.876 0-170.686 76.812-170.686 170.688v682.628c0 93.934 76.812 170.684 170.688 170.684h682.652c93.876 0 170.66-76.748 170.66-170.684v-682.628c0-93.876-76.784-170.688-170.66-170.688zM278.944 831.248c-47.97 0-86.944-38.692-86.944-86.628 0-47.684 38.972-86.812 86.944-86.812 48.158 0 87.060 39.128 87.060 86.812-0.002 47.936-38.904 86.628-87.060 86.628zM497.468 831.996c0-81.81-31.808-158.818-89.46-216.444-57.714-57.75-134.376-89.626-215.904-89.626v-125.186c237.652 0 431.126 193.442 431.126 431.254l-125.762 0.002zM719.628 831.996c0-291.062-236.658-527.94-527.376-527.94v-125.248c360.002 0 652.946 293.124 652.946 653.192l-125.57-0.004z"></path>
</symbol>
<symbol id="icon-youtube" viewBox="0 0 1024 1024">
	<title>youtube</title>
	<path class="path1" d="M832 128h-640c-105.6 0-192 86.4-192 192v384c0 105.6 86.4 192 192 192h640c105.6 0 192-86.4 192-192v-384c0-105.6-86.4-192-192-192zM384 768v-512l320 256-320 256z"></path>
</symbol>
</defs>
</svg>
